<svg width="50" height="50" viewBox="0 0 50 50" fill="none" xmlns="http://www.w3.org/2000/svg">
<g clip-path="url(#clip0_401_208)">
<path d="M42.2935 11.5174C39.8643 11.1524 37.5148 11.071 35.3103 11.2758C32.2317 11.5618 29.5364 12.4064 27.2993 13.7861C26.955 13.9985 26.8481 14.4496 27.0604 14.794C27.2728 15.1382 27.724 15.2451 28.0683 15.0328C32.8011 12.1137 38.8759 12.4849 42.0757 12.9659C42.4755 13.026 42.8488 12.7505 42.9089 12.3505C42.969 11.9505 42.6935 11.5776 42.2935 11.5174Z" fill="url(#paint0_diamond_401_208)"/>
<path d="M42.2935 17.5865C39.8643 17.2215 37.5148 17.1401 35.3103 17.3449C32.2317 17.631 29.5364 18.4755 27.2993 19.8552C26.955 20.0676 26.8481 20.5188 27.0604 20.8631C27.1989 21.0875 27.4388 21.2111 27.6845 21.2111C27.8158 21.2111 27.9485 21.1759 28.0684 21.102C32.8012 18.1829 38.876 18.554 42.0758 19.0351C42.4756 19.0951 42.8489 18.8196 42.909 18.4196C42.969 18.0197 42.6935 17.6467 42.2935 17.5865Z" fill="url(#paint1_diamond_401_208)"/>
<path d="M42.2935 23.6558C39.8643 23.2908 37.5148 23.2094 35.3103 23.4142C32.2317 23.7003 29.5364 24.5448 27.2993 25.9245C26.955 26.1369 26.8481 26.5881 27.0604 26.9324C27.2728 27.2766 27.724 27.3836 28.0683 27.1713C32.8011 24.2521 38.8759 24.6233 42.0757 25.1044C42.4755 25.1644 42.8488 24.8889 42.9089 24.4889C42.969 24.089 42.6935 23.7161 42.2935 23.6558Z" fill="url(#paint2_diamond_401_208)"/>
<path d="M42.2935 29.7252C39.8643 29.3602 37.5148 29.2787 35.3103 29.4836C32.2317 29.7696 29.5364 30.6142 27.2993 31.9939C26.955 32.2063 26.8481 32.6574 27.0604 33.0018C27.2728 33.346 27.724 33.4529 28.0683 33.2406C32.8011 30.3215 38.8759 30.6927 42.0757 31.1737C42.4755 31.2338 42.8488 30.9583 42.9089 30.5583C42.969 30.1583 42.6935 29.7854 42.2935 29.7252Z" fill="url(#paint3_diamond_401_208)"/>
<path d="M7.92433 12.966C11.1242 12.4849 17.199 12.1138 21.9319 15.0329C22.2761 15.2452 22.7274 15.1381 22.9398 14.7939C23.1521 14.4497 23.0451 13.9984 22.7008 13.7861C20.4637 12.4064 17.7684 11.5619 14.6898 11.2758C12.4854 11.071 10.1359 11.1523 7.70666 11.5174C7.30666 11.5776 7.03117 11.9506 7.09123 12.3506C7.15129 12.7504 7.52463 13.0257 7.92433 12.966Z" fill="url(#paint4_diamond_401_208)"/>
<path d="M7.92433 19.0353C11.1242 18.5542 17.199 18.1832 21.9319 21.1022C22.2762 21.3146 22.7274 21.2075 22.9398 20.8633C23.1521 20.519 23.0451 20.0678 22.7008 19.8554C20.4637 18.4757 17.7684 17.6312 14.6898 17.3452C12.4854 17.1404 10.1359 17.2216 7.70666 17.5868C7.30666 17.6469 7.03117 18.02 7.09123 18.42C7.15129 18.8198 7.52463 19.0956 7.92433 19.0353Z" fill="url(#paint5_diamond_401_208)"/>
<path d="M7.92433 25.1044C11.1242 24.6234 17.199 24.2522 21.9319 27.1713C22.2761 27.3836 22.7274 27.2766 22.9398 26.9324C23.1521 26.5881 23.0451 26.1369 22.7008 25.9246C20.4637 24.5449 17.7684 23.7003 14.6898 23.4143C12.4854 23.2094 10.1359 23.2908 7.70666 23.6559C7.30666 23.7161 7.03117 24.0891 7.09123 24.4891C7.15129 24.889 7.52463 25.1647 7.92433 25.1044Z" fill="url(#paint6_diamond_401_208)"/>
<path d="M7.92433 31.1737C11.1242 30.6928 17.199 30.3216 21.9319 33.2406C22.2762 33.453 22.7274 33.3459 22.9398 33.0018C23.1521 32.6574 23.0451 32.2063 22.7008 31.9939C20.4637 30.6142 17.7684 29.7696 14.6898 29.4836C12.4854 29.2788 10.1359 29.3601 7.70666 29.7252C7.30666 29.7854 7.03117 30.1584 7.09123 30.5584C7.15129 30.9583 7.52463 31.2338 7.92433 31.1737Z" fill="url(#paint7_diamond_401_208)"/>
<path d="M48.7198 8.72865C48.0994 8.57543 47.1484 8.364 45.9584 8.17064C45.9165 7.3518 45.3466 6.66029 44.5414 6.47084C41.5502 5.76791 31.4927 3.99184 25 9.8643C18.5074 3.99184 8.44981 5.76771 5.45859 6.47094C4.65342 6.66039 4.08359 7.35189 4.0417 8.17064C2.85176 8.36391 1.90078 8.57543 1.28037 8.72865C0.526465 8.91459 0 9.58705 0 10.3638V40.1505C0 41.233 1.00576 42.0352 2.06055 41.7923C3.62422 41.4326 6.79336 40.84 10.4444 40.8942C14.8482 40.9626 18.6066 41.9386 21.6152 43.7951C22.191 44.1503 22.8547 44.3381 23.5344 44.3381H26.4657C27.1454 44.3381 27.8091 44.1503 28.3849 43.7951C31.3935 41.9386 35.1519 40.9626 39.5557 40.8942C43.2066 40.8398 46.3758 41.4326 47.9396 41.7923C48.9923 42.0347 50.0001 41.2351 50.0001 40.1505V10.3638C50 9.58695 49.4734 8.91459 48.7198 8.72865ZM48.5352 40.1505C48.5352 40.2916 48.4054 40.3962 48.268 40.3648C46.6396 39.9901 43.341 39.3706 39.5329 39.4294C34.8616 39.502 30.8521 40.5514 27.6157 42.5484C27.2714 42.7609 26.8736 42.8732 26.4658 42.8732H23.5345C23.1266 42.8732 22.7289 42.7609 22.3845 42.5484C19.1481 40.5515 15.1386 39.5021 10.4672 39.4294C6.66123 39.3707 3.36055 39.99 1.73213 40.3648C1.59395 40.3961 1.46494 40.291 1.46494 40.1505V10.3638C1.46494 10.2625 1.5333 10.1749 1.63135 10.1507C2.18262 10.0146 3.00762 9.83031 4.0377 9.65609V13.4179C4.0377 13.8225 4.36563 14.1503 4.77012 14.1503C5.17461 14.1503 5.50254 13.8225 5.50254 13.4179V8.26703C5.50254 8.08949 5.62246 7.93715 5.79404 7.89682C8.64522 7.2267 18.3198 5.50844 24.2677 11.1846V39.2013C24.2512 39.1896 24.2345 39.1786 24.2185 39.166C18.0899 34.3695 9.41143 35.5754 5.96465 36.3169C5.72588 36.3677 5.50254 36.1881 5.50254 35.945V16.8293C5.50254 16.4247 5.17461 16.0969 4.77012 16.0969C4.36563 16.0969 4.0377 16.4247 4.0377 16.8293V35.9451C4.0377 37.1214 5.12285 37.9965 6.27266 37.7491C16.014 35.6542 21.4364 38.8489 23.3156 40.3196C24.3075 41.0958 25.6927 41.0959 26.6847 40.3196C28.564 38.8487 33.9865 35.654 43.7276 37.7491C44.8781 37.9965 45.9627 37.121 45.9627 35.9451V29.2378C45.9627 28.8332 45.6349 28.5054 45.2303 28.5054C44.8257 28.5054 44.4979 28.8332 44.4979 29.2378V35.9451C44.4979 36.1884 44.2742 36.3677 44.0357 36.317C40.5889 35.5756 31.9105 34.3696 25.782 39.1661C25.766 39.1786 25.7492 39.1897 25.7327 39.2014V11.1847C31.6801 5.50853 41.3552 7.2266 44.206 7.89682C44.3777 7.93715 44.4976 8.08949 44.4976 8.26703V25.8269C44.4976 26.2315 44.8254 26.5593 45.23 26.5593C45.6346 26.5593 45.9624 26.2315 45.9624 25.8269V9.65619C46.9925 9.83041 47.8175 10.0147 48.3689 10.1508C48.4668 10.175 48.5352 10.2626 48.5352 10.3639V40.1505Z" fill="url(#paint8_diamond_401_208)"/>
</g>
<defs>
<radialGradient id="paint0_diamond_401_208" cx="0" cy="0" r="1" gradientUnits="userSpaceOnUse" gradientTransform="translate(34.9342 13.1539) rotate(90) scale(1.98809 7.98294)">
<stop stop-color="#262A5A"/>
<stop offset="0.5" stop-color="#93268B"/>
<stop offset="1" stop-color="#652C8B"/>
</radialGradient>
<radialGradient id="paint1_diamond_401_208" cx="0" cy="0" r="1" gradientUnits="userSpaceOnUse" gradientTransform="translate(34.9343 19.223) rotate(90) scale(1.9881 7.98297)">
<stop stop-color="#262A5A"/>
<stop offset="0.5" stop-color="#93268B"/>
<stop offset="1" stop-color="#652C8B"/>
</radialGradient>
<radialGradient id="paint2_diamond_401_208" cx="0" cy="0" r="1" gradientUnits="userSpaceOnUse" gradientTransform="translate(34.9342 25.2923) rotate(90) scale(1.98809 7.98294)">
<stop stop-color="#262A5A"/>
<stop offset="0.5" stop-color="#93268B"/>
<stop offset="1" stop-color="#652C8B"/>
</radialGradient>
<radialGradient id="paint3_diamond_401_208" cx="0" cy="0" r="1" gradientUnits="userSpaceOnUse" gradientTransform="translate(34.9342 31.3616) rotate(90) scale(1.98811 7.98294)">
<stop stop-color="#262A5A"/>
<stop offset="0.5" stop-color="#93268B"/>
<stop offset="1" stop-color="#652C8B"/>
</radialGradient>
<radialGradient id="paint4_diamond_401_208" cx="0" cy="0" r="1" gradientUnits="userSpaceOnUse" gradientTransform="translate(15.0659 13.1539) rotate(90) scale(1.98809 7.98293)">
<stop stop-color="#262A5A"/>
<stop offset="0.5" stop-color="#93268B"/>
<stop offset="1" stop-color="#652C8B"/>
</radialGradient>
<radialGradient id="paint5_diamond_401_208" cx="0" cy="0" r="1" gradientUnits="userSpaceOnUse" gradientTransform="translate(15.0659 19.2232) rotate(90) scale(1.98811 7.98293)">
<stop stop-color="#262A5A"/>
<stop offset="0.5" stop-color="#93268B"/>
<stop offset="1" stop-color="#652C8B"/>
</radialGradient>
<radialGradient id="paint6_diamond_401_208" cx="0" cy="0" r="1" gradientUnits="userSpaceOnUse" gradientTransform="translate(15.0659 25.2923) rotate(90) scale(1.98811 7.98293)">
<stop stop-color="#262A5A"/>
<stop offset="0.5" stop-color="#93268B"/>
<stop offset="1" stop-color="#652C8B"/>
</radialGradient>
<radialGradient id="paint7_diamond_401_208" cx="0" cy="0" r="1" gradientUnits="userSpaceOnUse" gradientTransform="translate(15.0659 31.3616) rotate(90) scale(1.98811 7.98293)">
<stop stop-color="#262A5A"/>
<stop offset="0.5" stop-color="#93268B"/>
<stop offset="1" stop-color="#652C8B"/>
</radialGradient>
<radialGradient id="paint8_diamond_401_208" cx="0" cy="0" r="1" gradientUnits="userSpaceOnUse" gradientTransform="translate(25 25.0001) rotate(90) scale(19.338 25)">
<stop stop-color="#262A5A"/>
<stop offset="0.5" stop-color="#93268B"/>
<stop offset="1" stop-color="#652C8B"/>
</radialGradient>
<clipPath id="clip0_401_208">
<rect width="50" height="50" fill="white"/>
</clipPath>
</defs>
</svg>
