<svg width="50" height="50" viewBox="0 0 50 50" fill="none" xmlns="http://www.w3.org/2000/svg">
<path d="M48.3037 19.8548H44.4297C43.8446 19.8553 43.2837 20.088 42.8699 20.5017C42.4562 20.9154 42.2235 21.4764 42.223 22.0615V22.5917L39.8542 24.2839H36.7188V20.7673C36.7177 19.8033 36.3344 18.8791 35.6529 18.1973C34.9714 17.5155 34.0474 17.1318 33.0834 17.1303H30.8131C28.136 11.9495 28.361 12.362 28.2183 12.1605H29.9943C30.059 12.5782 30.2709 12.9591 30.5919 13.2342C30.9128 13.5093 31.3216 13.6605 31.7443 13.6605H46.0099C47.0653 13.6605 48.0774 13.2412 48.8236 12.495C49.5699 11.7488 49.9891 10.7367 49.9891 9.68132C49.9891 8.62597 49.5699 7.61386 48.8236 6.86762C48.0774 6.12138 47.0653 5.70215 46.0099 5.70215H31.7443C31.3216 5.70215 30.9128 5.85336 30.5919 6.12846C30.2709 6.40357 30.059 6.7844 29.9943 7.20215H20.562C20.2051 7.20325 19.8631 7.34589 19.6112 7.59878C19.3593 7.85167 19.218 8.19416 19.2183 8.55111V11.1188H4.81203C4.34064 11.1192 3.8886 11.3063 3.55479 11.6391C3.22098 11.972 3.03257 12.4235 3.03078 12.8949V13.3844C3.03147 13.8566 3.21936 14.3093 3.55326 14.6432C3.88716 14.9771 4.33982 15.165 4.81203 15.1657H22.3849L22.723 17.1303H16.6303C15.6674 17.1345 14.745 17.5177 14.0625 18.1969L7.65057 24.6063L6.60057 23.5563C6.3743 23.3401 6.0734 23.2195 5.76047 23.2195C5.44753 23.2195 5.14663 23.3401 4.92036 23.5563L0.613591 27.8647C0.503118 27.9749 0.415477 28.1059 0.35568 28.2501C0.295883 28.3943 0.265104 28.5489 0.265104 28.705C0.265104 28.8611 0.295883 29.0157 0.35568 29.1599C0.415477 29.3041 0.503118 29.4351 0.613591 29.5454L1.66359 30.5954L1.07765 31.1792C0.397596 31.8624 0.014325 32.7861 0.0109863 33.7501V40.6605C0.0120876 41.6244 0.395319 42.5486 1.07668 43.2305C1.75804 43.9123 2.68195 44.2962 3.64588 44.298H33.0834C34.0475 44.2965 34.9716 43.9127 35.6531 43.2308C36.3346 42.5489 36.7178 41.6246 36.7188 40.6605V37.1443H39.8542L42.223 38.8365V39.3605C42.2237 39.9472 42.457 40.5097 42.8719 40.9246C43.2868 41.3394 43.8493 41.5728 44.436 41.5735H48.3037C48.6682 41.5731 49.0176 41.4281 49.2753 41.1703C49.533 40.9125 49.6779 40.563 49.6782 40.1985V38.3334C49.6777 38.0891 49.612 37.8493 49.4881 37.6388C49.3642 37.4282 49.1863 37.2545 48.973 37.1355L48.0646 36.6287L48.9698 36.1266C49.1845 36.0077 49.3633 35.8335 49.4879 35.6221C49.6124 35.4108 49.6781 35.1699 49.6782 34.9245V32.4245C49.6778 32.1802 49.6122 31.9404 49.4882 31.7298C49.3643 31.5193 49.1864 31.3456 48.973 31.2266L48.0646 30.7199L48.9698 30.2178C49.1845 30.0989 49.3633 29.9247 49.4879 29.7133C49.6124 29.5019 49.6781 29.261 49.6782 29.0157V26.5157C49.6785 26.2705 49.6133 26.0297 49.4893 25.8181C49.3654 25.6066 49.1871 25.4321 48.973 25.3126L48.0646 24.8063L48.9704 24.3037C49.1849 24.1847 49.3636 24.0105 49.4881 23.7991C49.6126 23.5878 49.6782 23.3469 49.6782 23.1016V21.2292C49.6778 20.8648 49.5328 20.5155 49.2751 20.2578C49.0175 20.0001 48.6681 19.8552 48.3037 19.8548ZM31.0152 7.46777C31.0165 7.27529 31.094 7.09116 31.2306 6.95554C31.3672 6.81992 31.5518 6.74381 31.7443 6.74382H46.0099C46.789 6.74382 47.5362 7.0533 48.0871 7.60419C48.638 8.15508 48.9474 8.90224 48.9474 9.68132C48.9474 10.4604 48.638 11.2076 48.0871 11.7584C47.5362 12.3093 46.789 12.6188 46.0099 12.6188H31.7443C31.5518 12.6188 31.3672 12.5427 31.2306 12.4071C31.094 12.2715 31.0165 12.0873 31.0152 11.8949V7.46777ZM29.9735 11.1188H26.4266V8.24382H29.9735V11.1188ZM25.3849 8.24382V11.1188H23.8641V8.24382H25.3849ZM20.2599 8.55111C20.2595 8.51106 20.2669 8.47131 20.2819 8.43415C20.2968 8.39699 20.319 8.36315 20.347 8.33459C20.3751 8.30603 20.4086 8.2833 20.4455 8.26772C20.4824 8.25214 20.522 8.24402 20.562 8.24382H22.8224V11.1188H20.2605L20.2599 8.55111ZM4.81203 14.124C4.61609 14.1233 4.42837 14.0452 4.28982 13.9066C4.15127 13.7681 4.07313 13.5804 4.07244 13.3844V12.8949C4.07341 12.6995 4.15181 12.5125 4.29044 12.3748C4.42908 12.2371 4.61665 12.1601 4.81203 12.1605H21.8641L22.2027 14.124H4.81203ZM22.9266 12.1605H26.2235C26.4783 12.1598 26.7284 12.2294 26.9462 12.3617C27.164 12.4941 27.3411 12.684 27.4579 12.9105L29.6402 17.1292H23.7808C23.0126 12.673 23.6849 16.5579 22.9266 12.1605ZM12.8646 20.8652H31.9464V23.0006H10.7292L12.8646 20.8652ZM1.35005 28.8068C1.33613 28.7933 1.32506 28.7771 1.3175 28.7592C1.30995 28.7413 1.30605 28.7221 1.30605 28.7027C1.30605 28.6833 1.30995 28.664 1.3175 28.6461C1.32506 28.6282 1.33613 28.612 1.35005 28.5985C5.94276 24.0063 5.66724 24.2485 5.76047 24.2485C5.8438 24.2485 5.77609 24.2032 6.91411 25.3423L2.40005 29.8568L1.35005 28.8068ZM35.6771 40.6605C35.6764 41.3486 35.4028 42.0084 34.9163 42.4951C34.4297 42.9817 33.77 43.2555 33.0818 43.2563H3.64588C2.95773 43.2555 2.298 42.9817 1.81145 42.4951C1.3249 42.0084 1.05126 41.3486 1.05057 40.6605V33.7501C1.05342 33.0624 1.32698 32.4036 1.81203 31.9162L9.68755 24.0438H32.4688C32.6069 24.0438 32.7394 23.9889 32.8371 23.8913C32.9348 23.7936 32.9896 23.6611 32.9896 23.523V20.3459C32.9896 20.2078 32.9348 20.0753 32.8371 19.9776C32.7394 19.8799 32.6069 19.8251 32.4688 19.8251H13.9063L14.7964 18.935C15.2835 18.4492 15.9424 18.1751 16.6303 18.1719H33.0834C33.7712 18.173 34.4305 18.4469 34.9168 18.9334C35.403 19.4199 35.6764 20.0794 35.6771 20.7673V40.6605ZM36.7188 25.3256H39.5V36.1027H36.7188V25.3256ZM42.2214 37.5553L40.5417 36.3542V25.0725L42.2214 23.8745V37.5553ZM48.6365 23.1011C48.6365 23.1605 48.6207 23.2188 48.5905 23.27C48.5604 23.3212 48.5171 23.3634 48.4652 23.3923L47.4141 23.9756C47.2664 24.058 47.1433 24.1783 47.0577 24.3242C46.972 24.47 46.9268 24.6361 46.9268 24.8053C46.9268 24.9744 46.972 25.1405 47.0577 25.2864C47.1433 25.4322 47.2664 25.5526 47.4141 25.635L48.4678 26.2225C48.5196 26.2513 48.5627 26.2934 48.5928 26.3445C48.6228 26.3956 48.6386 26.4538 48.6386 26.5131V29.0131C48.6385 29.0725 48.6225 29.1309 48.5923 29.1821C48.5621 29.2333 48.5187 29.2754 48.4667 29.3042L47.4157 29.887C47.2679 29.9694 47.1449 30.0898 47.0592 30.2356C46.9736 30.3815 46.9284 30.5476 46.9284 30.7167C46.9284 30.8859 46.9736 31.052 47.0592 31.1978C47.1449 31.3437 47.2679 31.464 47.4157 31.5464L48.4693 32.1339C48.5211 32.1628 48.5642 32.205 48.5942 32.256C48.6242 32.3071 48.6401 32.3653 48.6402 32.4245V34.9245C48.6401 34.984 48.6242 35.0424 48.5939 35.0936C48.5637 35.1448 48.5203 35.1869 48.4683 35.2157L47.4172 35.7985C47.2695 35.8809 47.1465 36.0012 47.0608 36.1471C46.9751 36.293 46.93 36.459 46.93 36.6282C46.93 36.7973 46.9751 36.9634 47.0608 37.1093C47.1465 37.2551 47.2695 37.3755 47.4172 37.4579L48.4709 38.0454C48.5226 38.0743 48.5657 38.1165 48.5957 38.1675C48.6257 38.2186 48.6416 38.2768 48.6417 38.336V40.2027C48.6417 40.291 48.6067 40.3757 48.5443 40.4382C48.4819 40.5007 48.3972 40.5359 48.3089 40.536H44.436C44.1255 40.5356 43.8278 40.412 43.6082 40.1925C43.3886 39.9729 43.265 39.6752 43.2646 39.3647V22.0615C43.265 21.7526 43.3879 21.4565 43.6063 21.2381C43.8247 21.0197 44.1209 20.8968 44.4297 20.8964H48.3037C48.3919 20.8966 48.4765 20.9317 48.5389 20.9941C48.6013 21.0564 48.6364 21.141 48.6365 21.2292V23.1011Z" fill="url(#paint0_diamond_401_185)"/>
<path d="M31.7709 31.6965H9.8329C9.51076 31.6969 9.20194 31.8251 8.97415 32.0529C8.74636 32.2807 8.61821 32.5895 8.6178 32.9116V39.5314C8.61821 39.8536 8.74636 40.1624 8.97415 40.3902C9.20194 40.618 9.51076 40.7461 9.8329 40.7465H31.7709C32.0931 40.7461 32.4019 40.618 32.6297 40.3902C32.8575 40.1624 32.9856 39.8536 32.986 39.5314V32.9116C32.9856 32.5895 32.8575 32.2807 32.6297 32.0529C32.4019 31.8251 32.0931 31.6969 31.7709 31.6965ZM9.65946 39.5314V32.9116C9.6596 32.8657 9.67792 32.8216 9.71042 32.7892C9.74291 32.7567 9.78695 32.7383 9.8329 32.7382H16.9298C16.9032 32.921 16.8996 39.4981 16.9298 39.7054H9.8329C9.78686 39.7053 9.74274 39.6869 9.71023 39.6543C9.67772 39.6216 9.65946 39.5775 9.65946 39.5314ZM31.9444 39.5314C31.9444 39.5774 31.9261 39.6215 31.8936 39.6541C31.861 39.6866 31.8169 39.7049 31.7709 39.7049H18.1251C18.0791 39.7047 18.0351 39.6864 18.0026 39.6539C17.9701 39.6214 17.9518 39.5774 17.9517 39.5314V32.9116C17.9518 32.8657 17.9701 32.8216 18.0026 32.7892C18.0351 32.7567 18.0791 32.7383 18.1251 32.7382H31.7709C31.8169 32.7383 31.8609 32.7567 31.8934 32.7892C31.9259 32.8216 31.9442 32.8657 31.9444 32.9116V39.5314Z" fill="url(#paint1_diamond_401_185)"/>
<path d="M25.4526 15.2543C25.5037 15.3828 25.6038 15.4857 25.7308 15.5404C25.8577 15.5951 26.0012 15.5971 26.1297 15.546C26.2582 15.4949 26.3611 15.3948 26.4158 15.2678C26.4705 15.1408 26.4725 14.9973 26.4214 14.8689L26.1297 14.1345C26.0786 14.006 25.9785 13.9031 25.8516 13.8484C25.7246 13.7937 25.5811 13.7917 25.4526 13.8428C25.3242 13.8939 25.2213 13.994 25.1666 14.121C25.1119 14.2479 25.1098 14.3915 25.161 14.5199C25.3182 14.9131 25.2526 14.748 25.4526 15.2543Z" fill="url(#paint2_diamond_401_185)"/>
<path d="M14.3484 33.8611H11.9896C11.8514 33.8611 11.719 33.916 11.6213 34.0136C11.5236 34.1113 11.4688 34.2438 11.4688 34.3819C11.4688 34.5201 11.5236 34.6525 11.6213 34.7502C11.719 34.8479 11.8514 34.9028 11.9896 34.9028H14.3484C14.4866 34.9028 14.619 34.8479 14.7167 34.7502C14.8144 34.6525 14.8693 34.5201 14.8693 34.3819C14.8693 34.2438 14.8144 34.1113 14.7167 34.0136C14.619 33.916 14.4866 33.8611 14.3484 33.8611Z" fill="url(#paint3_diamond_401_185)"/>
<path d="M14.3484 35.7012H11.9896C11.8514 35.7012 11.719 35.756 11.6213 35.8537C11.5236 35.9514 11.4688 36.0839 11.4688 36.222C11.4688 36.3601 11.5236 36.4926 11.6213 36.5903C11.719 36.688 11.8514 36.7428 11.9896 36.7428H14.3484C14.4866 36.7428 14.619 36.688 14.7167 36.5903C14.8144 36.4926 14.8693 36.3601 14.8693 36.222C14.8693 36.0839 14.8144 35.9514 14.7167 35.8537C14.619 35.756 14.4866 35.7012 14.3484 35.7012Z" fill="url(#paint4_diamond_401_185)"/>
<path d="M14.3484 37.5413H11.9896C11.8514 37.5413 11.719 37.5961 11.6213 37.6938C11.5236 37.7915 11.4688 37.924 11.4688 38.0621C11.4688 38.2002 11.5236 38.3327 11.6213 38.4304C11.719 38.5281 11.8514 38.5829 11.9896 38.5829H14.3484C14.4866 38.5829 14.619 38.5281 14.7167 38.4304C14.8144 38.3327 14.8693 38.2002 14.8693 38.0621C14.8693 37.924 14.8144 37.7915 14.7167 37.6938C14.619 37.5961 14.4866 37.5413 14.3484 37.5413Z" fill="url(#paint5_diamond_401_185)"/>
<path d="M30.9036 26.0203C30.4916 26.0203 30.0888 26.1424 29.7462 26.3714C29.4036 26.6003 29.1366 26.9257 28.9789 27.3063C28.8212 27.687 28.78 28.1059 28.8603 28.51C28.9407 28.9142 29.1391 29.2854 29.4305 29.5767C29.7219 29.8681 30.0931 30.0665 30.4972 30.1469C30.9013 30.2273 31.3202 30.186 31.7009 30.0283C32.0816 29.8707 32.407 29.6036 32.6359 29.261C32.8648 28.9184 32.987 28.5156 32.987 28.1036C32.987 27.5511 32.7675 27.0212 32.3768 26.6305C31.9861 26.2398 31.4562 26.0203 30.9036 26.0203ZM30.9036 29.1453C30.6976 29.1453 30.4962 29.0842 30.3249 28.9697C30.1536 28.8553 30.0201 28.6926 29.9413 28.5022C29.8624 28.3119 29.8418 28.1024 29.882 27.9004C29.9222 27.6983 30.0214 27.5127 30.1671 27.367C30.3128 27.2213 30.4984 27.1221 30.7004 27.0819C30.9025 27.0418 31.1119 27.0624 31.3023 27.1412C31.4926 27.2201 31.6553 27.3536 31.7698 27.5249C31.8842 27.6962 31.9453 27.8976 31.9453 28.1036C31.9448 28.3795 31.8348 28.6439 31.6395 28.8388C31.4442 29.0337 31.1796 29.1432 30.9036 29.1432V29.1453Z" fill="url(#paint6_diamond_401_185)"/>
<path d="M24.4505 30.185C24.8626 30.185 25.2654 30.0628 25.608 29.8339C25.9506 29.605 26.2176 29.2796 26.3753 28.8989C26.533 28.5182 26.5742 28.0993 26.4938 27.6952C26.4134 27.2911 26.215 26.9199 25.9237 26.6285C25.6323 26.3371 25.2611 26.1387 24.857 26.0583C24.4528 25.978 24.0339 26.0192 23.6533 26.1769C23.2726 26.3346 22.9472 26.6016 22.7183 26.9442C22.4894 27.2868 22.3672 27.6896 22.3672 28.1016C22.3672 28.6542 22.5867 29.1841 22.9774 29.5748C23.3681 29.9655 23.898 30.185 24.4505 30.185ZM24.4505 27.06C24.6565 27.06 24.8579 27.1211 25.0292 27.2355C25.2005 27.35 25.3341 27.5127 25.4129 27.703C25.4917 27.8934 25.5124 28.1028 25.4722 28.3049C25.432 28.5069 25.3328 28.6925 25.1871 28.8382C25.0414 28.9839 24.8558 29.0831 24.6537 29.1233C24.4517 29.1635 24.2422 29.1429 24.0519 29.064C23.8616 28.9852 23.6989 28.8517 23.5844 28.6804C23.4699 28.5091 23.4089 28.3077 23.4089 28.1016C23.4094 27.8257 23.5194 27.5613 23.7147 27.3664C23.91 27.1715 24.1746 27.0621 24.4505 27.0621V27.06Z" fill="url(#paint7_diamond_401_185)"/>
<path d="M17.9964 30.185C18.4085 30.185 18.8113 30.0628 19.1539 29.8339C19.4965 29.605 19.7635 29.2796 19.9212 28.8989C20.0789 28.5182 20.1201 28.0993 20.0397 27.6952C19.9593 27.2911 19.7609 26.9199 19.4696 26.6285C19.1782 26.3371 18.807 26.1387 18.4029 26.0583C17.9987 25.978 17.5798 26.0192 17.1992 26.1769C16.8185 26.3346 16.4931 26.6016 16.2642 26.9442C16.0353 27.2868 15.9131 27.6896 15.9131 28.1016C15.9131 28.6542 16.1326 29.1841 16.5233 29.5748C16.914 29.9655 17.4439 30.185 17.9964 30.185ZM17.9964 27.06C18.2024 27.06 18.4038 27.1211 18.5751 27.2355C18.7464 27.35 18.88 27.5127 18.9588 27.703C19.0376 27.8934 19.0583 28.1028 19.0181 28.3049C18.9779 28.5069 18.8787 28.6925 18.733 28.8382C18.5873 28.9839 18.4017 29.0831 18.1996 29.1233C17.9976 29.1635 17.7881 29.1429 17.5978 29.064C17.4075 28.9852 17.2448 28.8517 17.1303 28.6804C17.0158 28.5091 16.9548 28.3077 16.9548 28.1016C16.9553 27.8257 17.0653 27.5613 17.2606 27.3664C17.4559 27.1715 17.7205 27.0621 17.9964 27.0621V27.06Z" fill="url(#paint8_diamond_401_185)"/>
<defs>
<radialGradient id="paint0_diamond_401_185" cx="0" cy="0" r="1" gradientUnits="userSpaceOnUse" gradientTransform="translate(25 25.0001) rotate(90) scale(19.2979 24.9891)">
<stop stop-color="#262A5A"/>
<stop offset="0.5" stop-color="#93268B"/>
<stop offset="1" stop-color="#652C8B"/>
</radialGradient>
<radialGradient id="paint1_diamond_401_185" cx="0" cy="0" r="1" gradientUnits="userSpaceOnUse" gradientTransform="translate(20.8019 36.2215) rotate(90) scale(4.525 12.1841)">
<stop stop-color="#262A5A"/>
<stop offset="0.5" stop-color="#93268B"/>
<stop offset="1" stop-color="#652C8B"/>
</radialGradient>
<radialGradient id="paint2_diamond_401_185" cx="0" cy="0" r="1" gradientUnits="userSpaceOnUse" gradientTransform="translate(25.7912 14.6944) rotate(90) scale(0.88849 0.667136)">
<stop stop-color="#262A5A"/>
<stop offset="0.5" stop-color="#93268B"/>
<stop offset="1" stop-color="#652C8B"/>
</radialGradient>
<radialGradient id="paint3_diamond_401_185" cx="0" cy="0" r="1" gradientUnits="userSpaceOnUse" gradientTransform="translate(13.169 34.3819) rotate(90) scale(0.520833 1.70026)">
<stop stop-color="#262A5A"/>
<stop offset="0.5" stop-color="#93268B"/>
<stop offset="1" stop-color="#652C8B"/>
</radialGradient>
<radialGradient id="paint4_diamond_401_185" cx="0" cy="0" r="1" gradientUnits="userSpaceOnUse" gradientTransform="translate(13.169 36.222) rotate(90) scale(0.520833 1.70026)">
<stop stop-color="#262A5A"/>
<stop offset="0.5" stop-color="#93268B"/>
<stop offset="1" stop-color="#652C8B"/>
</radialGradient>
<radialGradient id="paint5_diamond_401_185" cx="0" cy="0" r="1" gradientUnits="userSpaceOnUse" gradientTransform="translate(13.169 38.0621) rotate(90) scale(0.520833 1.70026)">
<stop stop-color="#262A5A"/>
<stop offset="0.5" stop-color="#93268B"/>
<stop offset="1" stop-color="#652C8B"/>
</radialGradient>
<radialGradient id="paint6_diamond_401_185" cx="0" cy="0" r="1" gradientUnits="userSpaceOnUse" gradientTransform="translate(30.9036 28.1036) rotate(90) scale(2.08333)">
<stop stop-color="#262A5A"/>
<stop offset="0.5" stop-color="#93268B"/>
<stop offset="1" stop-color="#652C8B"/>
</radialGradient>
<radialGradient id="paint7_diamond_401_185" cx="0" cy="0" r="1" gradientUnits="userSpaceOnUse" gradientTransform="translate(24.4505 28.1016) rotate(90) scale(2.08333)">
<stop stop-color="#262A5A"/>
<stop offset="0.5" stop-color="#93268B"/>
<stop offset="1" stop-color="#652C8B"/>
</radialGradient>
<radialGradient id="paint8_diamond_401_185" cx="0" cy="0" r="1" gradientUnits="userSpaceOnUse" gradientTransform="translate(17.9964 28.1016) rotate(90) scale(2.08333)">
<stop stop-color="#262A5A"/>
<stop offset="0.5" stop-color="#93268B"/>
<stop offset="1" stop-color="#652C8B"/>
</radialGradient>
</defs>
</svg>
