<svg width="30" height="30" viewBox="0 0 30 30" fill="none" xmlns="http://www.w3.org/2000/svg">
<g clip-path="url(#clip0_443_288)">
<path d="M16.8322 9.79915C16.8334 9.55642 16.6376 9.35874 16.3949 9.35756C16.3941 9.35756 16.3934 9.35756 16.3927 9.35756C16.151 9.35756 15.9545 9.5529 15.9533 9.79482L15.9522 10.0162C15.6413 9.77683 15.2627 9.64131 14.8413 9.64131C13.8049 9.64131 12.7328 10.538 12.7328 12.0384C12.7328 13.4069 13.6597 14.5202 14.7989 14.5202C15.2941 14.5202 15.7425 14.3115 16.0906 13.96C16.1598 14.1 16.2505 14.2289 16.3609 14.3398C16.6059 14.5861 16.9216 14.7217 17.2498 14.7217C18.1998 14.7217 18.8013 14.0604 19.0477 13.4414C19.4299 12.4803 19.4986 11.6705 19.2705 10.8158C19.2692 10.8113 19.268 10.8067 19.2666 10.8022C18.9212 9.65783 18.1485 8.72081 17.0908 8.16375C16.0332 7.60674 14.8231 7.49987 13.6832 7.86277C12.6031 8.20657 11.7045 8.94785 11.153 9.94996C10.6012 10.9524 10.4562 12.108 10.7444 13.2041C10.9941 14.1535 11.5332 14.9725 12.3035 15.5726C13.0451 16.1504 13.9689 16.4829 14.9046 16.5088C14.9088 16.5089 14.9129 16.509 14.917 16.509C15.154 16.509 15.3494 16.3202 15.3561 16.0817C15.3627 15.8391 15.1716 15.637 14.9289 15.6303C13.3645 15.5871 11.9933 14.4974 11.5944 12.9806C11.3637 12.1035 11.4804 11.1778 11.9229 10.3737C12.3654 9.56972 13.0852 8.97544 13.9498 8.70025C14.8636 8.40935 15.8336 8.49501 16.6812 8.94134C17.5266 9.38657 18.1448 10.1346 18.4228 11.0482C18.6091 11.7518 18.4967 12.4486 18.2311 13.1167C18.1442 13.335 17.8747 13.8429 17.2499 13.8429C17.1249 13.8429 17.0295 13.7659 16.9839 13.72C16.8773 13.6129 16.8141 13.4551 16.8149 13.2981L16.8322 9.79915ZM14.7989 13.6414C14.2279 13.6414 13.6117 13.0285 13.6117 12.0384C13.6117 11.088 14.2368 10.5202 14.8413 10.5202C15.4732 10.5202 15.9194 11.1072 15.9426 11.9563L15.9418 12.1169C15.9083 12.9655 15.4085 13.6414 14.7989 13.6414Z" fill="#D9D9D9"/>
<path d="M28.3241 28.1161C28.3241 28.1159 28.3241 28.1158 28.3241 28.1156V13.1243C28.3241 12.6186 28.1178 12.1254 27.7583 11.77C27.7578 11.7696 27.7574 11.769 27.7569 11.7685C27.7567 11.7683 27.7564 11.768 27.7561 11.7677C27.7553 11.767 27.7546 11.7661 27.7537 11.7653L26.0266 10.0703V9.0792C26.0266 8.83646 25.83 8.63978 25.5872 8.63978C25.3445 8.63978 25.1478 8.83646 25.1478 9.0792V13.7522L17.1633 21.7225L15.9075 21.0325C15.3394 20.7201 14.6607 20.7201 14.0924 21.0324L12.8366 21.7225L4.85209 13.7522V6.16648C4.85209 5.60115 5.31207 5.14117 5.8774 5.14117H24.1225C24.6878 5.14117 25.1478 5.60115 25.1478 6.16648V7.20873C25.1478 7.45147 25.3445 7.64815 25.5872 7.64815C25.83 7.64815 26.0266 7.45147 26.0266 7.20873V6.16648C26.0266 5.1165 25.1725 4.26233 24.1225 4.26233H20.1091L16.2781 0.502294C16.2739 0.498193 16.2696 0.49415 16.2653 0.490283C15.544 -0.163398 14.4559 -0.163457 13.7345 0.490283C13.7302 0.49415 13.726 0.498193 13.7218 0.502294L9.89078 4.26233H5.87734C4.82742 4.26233 3.97319 5.1165 3.97319 6.16648V10.0704L2.24609 11.7654C2.24539 11.7661 2.24468 11.7669 2.24398 11.7676C2.24363 11.768 2.24328 11.7682 2.24293 11.7686C2.24228 11.7692 2.24175 11.7699 2.24117 11.7705C1.8819 12.1259 1.67578 12.6189 1.67578 13.1243V18.1388C1.67578 18.3815 1.87252 18.5782 2.1152 18.5782C2.35788 18.5782 2.55462 18.3815 2.55462 18.1388V13.1243C2.55462 13.0015 2.57829 12.8805 2.62083 12.7667L4.10214 14.2454L12.0342 22.1634L2.55468 27.3727V20.0538C2.55468 19.8111 2.35794 19.6144 2.11526 19.6144C1.87258 19.6144 1.67584 19.8111 1.67584 20.0538V28.1156V28.1161C1.67584 28.1184 1.67596 28.1207 1.67602 28.123C1.68006 29.1587 2.52363 30 3.56025 30H19.7834C20.0262 30 20.2228 29.8033 20.2228 29.5606C20.2228 29.3178 20.0262 29.1212 19.7834 29.1212H3.56025C3.08966 29.1212 2.69471 28.7958 2.58562 28.3585L12.971 22.6514L14.5156 21.8026C14.8189 21.636 15.1809 21.6359 15.4842 21.8026L17.0288 22.6514L27.4142 28.3586C27.3051 28.7958 26.9101 29.1212 26.4396 29.1212H21.6985C21.4558 29.1212 21.2591 29.3178 21.2591 29.5606C21.2591 29.8033 21.4558 30 21.6985 30H26.4396C27.4762 30 28.3198 29.1587 28.3239 28.123C28.3239 28.1207 28.3241 28.1184 28.3241 28.1161ZM14.3306 1.13623C14.7137 0.794538 15.2863 0.794479 15.6693 1.13623L18.8544 4.26233H11.1455L14.3306 1.13623ZM3.97325 12.8749L3.1786 12.0816L3.97325 11.3017V12.8749ZM25.8977 14.2454L27.379 12.7666C27.4215 12.8805 27.4452 13.0015 27.4452 13.1243V27.3727L17.9656 22.1634L25.8977 14.2454ZM26.8213 12.0816L26.0266 12.8749V11.3017L26.8213 12.0816Z" fill="#D9D9D9"/>
</g>
<defs>
<clipPath id="clip0_443_288">
<rect width="30" height="30" fill="white"/>
</clipPath>
</defs>
</svg>
