<svg width="29" height="29" viewBox="0 0 29 29" fill="none" xmlns="http://www.w3.org/2000/svg">
<g clip-path="url(#clip0_468_151)">
<path d="M14.5 0C6.50466 0 0 6.50466 0 14.5C0 22.4953 6.50466 29 14.5 29C22.4953 29 29 22.4953 29 14.5C29 6.50466 22.4953 0 14.5 0ZM14.5 27.341C7.4194 27.341 1.65898 21.5805 1.65898 14.5C1.65898 7.41949 7.4194 1.65898 14.5 1.65898C21.5806 1.65898 27.341 7.41949 27.341 14.5C27.341 21.5805 21.5806 27.341 14.5 27.341Z" fill="#D9D9D9"/>
<path d="M17.8583 6.63147H15.892C14.2827 6.63147 12.9734 7.94077 12.9734 9.55007V11.762H11.1416C10.6835 11.762 10.3121 12.1334 10.3121 12.5915C10.3121 13.0497 10.6835 13.421 11.1416 13.421H12.9734V21.1014C12.9734 21.5596 13.3447 21.9309 13.8029 21.9309C14.261 21.9309 14.6324 21.5596 14.6324 21.1014V13.421H17.4665C17.9246 13.421 18.296 13.0497 18.296 12.5915C18.296 12.1334 17.9246 11.762 17.4665 11.762H14.6324V9.55007C14.6324 8.85551 15.1974 8.29045 15.892 8.29045H17.8582C18.3163 8.29045 18.6877 7.91911 18.6877 7.46096C18.6877 7.0028 18.3163 6.63147 17.8583 6.63147Z" fill="#D9D9D9"/>
</g>
<defs>
<clipPath id="clip0_468_151">
<rect width="29" height="29" fill="white"/>
</clipPath>
</defs>
</svg>
