<svg width="50" height="50" viewBox="0 0 50 50" fill="none" xmlns="http://www.w3.org/2000/svg">
<g clip-path="url(#clip0_401_221)">
<path d="M24.7773 6.93091C17.7742 6.93091 12.0527 12.7126 12.0527 19.7894C12.0527 23.4897 13.6547 27.0512 16.3553 29.4564C18.3692 31.4915 18.1861 35.8393 18.1404 35.8856C18.1404 36.1168 18.1861 36.3019 18.3692 36.4869C18.5065 36.6256 18.7354 36.7181 18.9185 36.7181H30.5903C30.8191 36.7181 31.0022 36.6256 31.1395 36.4869C31.2768 36.3481 31.3684 36.1168 31.3684 35.8856C31.3684 35.8393 31.1395 31.4915 33.1535 29.4564C33.1992 29.4101 33.245 29.3638 33.2908 29.3176C35.9455 26.8662 37.5018 23.3971 37.5018 19.7894C37.5018 12.7126 31.7803 6.93091 24.7773 6.93091ZM32.1007 28.2538C32.0549 28.3 31.9634 28.3925 31.9634 28.4388C30.1783 30.3814 29.8579 33.5729 29.8121 35.0993H19.6966C19.6508 33.5729 19.3304 30.2427 17.408 28.2538C14.9821 26.1261 13.5632 23.0271 13.5632 19.7431C13.5632 13.4989 18.5523 8.45727 24.7315 8.45727C30.9107 8.45727 35.8998 13.4989 35.8998 19.7431C35.8998 23.0271 34.5266 26.1261 32.1007 28.2538Z" fill="url(#paint0_diamond_401_221)"/>
<path d="M24.7315 10.2148C24.3195 10.2148 23.9534 10.5849 23.9534 11.0012C23.9534 11.4174 24.3195 11.7875 24.7315 11.7875C29.3544 11.7875 33.0619 15.5802 33.0619 20.2056C33.0619 20.6219 33.4281 20.9919 33.84 20.9919C34.252 20.9919 34.6182 20.6219 34.6182 20.2056C34.6639 14.7014 30.2241 10.2148 24.7315 10.2148Z" fill="url(#paint1_diamond_401_221)"/>
<path d="M29.8121 37.5969H19.6508C18.5981 37.5969 17.7284 38.4757 17.7284 39.5396C17.7284 40.6034 18.5981 41.4822 19.6508 41.4822H29.7663C30.8649 41.436 31.7345 40.6034 31.7345 39.5396C31.7345 38.4757 30.8649 37.5969 29.8121 37.5969ZM29.8121 39.8633H19.6508C19.4677 39.8633 19.2846 39.7246 19.2846 39.4933C19.2846 39.262 19.4219 39.1233 19.6508 39.1233H29.7663C29.9494 39.1233 30.1325 39.262 30.1325 39.4933C30.1325 39.7246 29.9952 39.8633 29.8121 39.8633Z" fill="url(#paint2_diamond_401_221)"/>
<path d="M28.3017 42.2686H21.1613C20.1086 42.2686 19.2389 43.1474 19.2389 44.2112C19.2389 45.275 20.1086 46.1538 21.1613 46.1538H28.3017C29.3544 46.1538 30.2241 45.275 30.2241 44.2112C30.2241 43.1011 29.3544 42.2686 28.3017 42.2686ZM28.3017 44.535H21.1613C20.9782 44.535 20.7951 44.3962 20.7951 44.1649C20.7951 43.9337 20.9324 43.7949 21.1613 43.7949H28.3017C28.4848 43.7949 28.6679 43.9337 28.6679 44.1649C28.6679 44.3962 28.4848 44.535 28.3017 44.535Z" fill="url(#paint3_diamond_401_221)"/>
<path d="M24.7315 3.09183C25.1892 3.09183 25.5096 2.7218 25.5096 2.30552V-3.05988C25.5096 -3.47616 25.1434 -3.84619 24.7315 -3.84619C24.3195 -3.84619 23.9534 -3.47616 23.9534 -3.05988V2.30552C23.9534 2.7218 24.3195 3.09183 24.7315 3.09183Z" fill="url(#paint4_diamond_401_221)"/>
<path d="M37.6848 0.131709C37.3186 -0.145812 36.8609 -0.00705167 36.632 0.316723L33.7027 4.75706C33.428 5.12708 33.5196 5.63587 33.8857 5.86714C34.0231 5.95965 34.1604 6.0059 34.2977 6.0059C34.5723 6.0059 34.8012 5.86714 34.9385 5.63587L37.8679 1.19554C38.1425 0.871764 38.051 0.362976 37.6848 0.131709Z" fill="url(#paint5_diamond_401_221)"/>
<path d="M15.4398 5.82081C15.5772 5.82081 15.7145 5.77456 15.8518 5.68205C16.218 5.45078 16.3095 4.942 16.0806 4.57197L13.2428 0.08538C13.0139 -0.284648 12.5105 -0.377155 12.1443 -0.145887C11.7781 0.08538 11.6866 0.594168 11.9154 0.964196L14.7533 5.45078C14.9364 5.7283 15.1652 5.82081 15.4398 5.82081Z" fill="url(#paint6_diamond_401_221)"/>
<path d="M9.90141 10.7237L5.27848 8.17974C4.9123 7.99472 4.40881 8.13348 4.22573 8.50351C3.99687 8.87354 4.13418 9.38233 4.54613 9.56734L9.16907 12.1113C9.30638 12.1575 9.39793 12.2038 9.53524 12.2038C9.80987 12.2038 10.0845 12.065 10.2218 11.7875C10.4049 11.4175 10.2676 10.9087 9.90141 10.7237Z" fill="url(#paint7_diamond_401_221)"/>
<path d="M45.2829 8.50351C45.0998 8.13348 44.5963 7.99472 44.2301 8.17974L39.5614 10.7237C39.1953 10.9087 39.0579 11.4175 39.241 11.7875C39.3783 12.065 39.653 12.2038 39.9276 12.2038C40.0649 12.2038 40.2022 12.1575 40.2938 12.1113L44.9625 9.56734C45.3287 9.38233 45.466 8.87354 45.2829 8.50351Z" fill="url(#paint8_diamond_401_221)"/>
</g>
<defs>
<radialGradient id="paint0_diamond_401_221" cx="0" cy="0" r="1" gradientUnits="userSpaceOnUse" gradientTransform="translate(24.7773 21.8245) rotate(90) scale(14.8936 12.7245)">
<stop stop-color="#262A5A"/>
<stop offset="0.5" stop-color="#93268B"/>
<stop offset="1" stop-color="#652C8B"/>
</radialGradient>
<radialGradient id="paint1_diamond_401_221" cx="0" cy="0" r="1" gradientUnits="userSpaceOnUse" gradientTransform="translate(29.2859 15.6034) rotate(90) scale(5.38853 5.33257)">
<stop stop-color="#262A5A"/>
<stop offset="0.5" stop-color="#93268B"/>
<stop offset="1" stop-color="#652C8B"/>
</radialGradient>
<radialGradient id="paint2_diamond_401_221" cx="0" cy="0" r="1" gradientUnits="userSpaceOnUse" gradientTransform="translate(24.7315 39.5396) rotate(90) scale(1.94265 7.00307)">
<stop stop-color="#262A5A"/>
<stop offset="0.5" stop-color="#93268B"/>
<stop offset="1" stop-color="#652C8B"/>
</radialGradient>
<radialGradient id="paint3_diamond_401_221" cx="0" cy="0" r="1" gradientUnits="userSpaceOnUse" gradientTransform="translate(24.7315 44.2112) rotate(90) scale(1.94265 5.4926)">
<stop stop-color="#262A5A"/>
<stop offset="0.5" stop-color="#93268B"/>
<stop offset="1" stop-color="#652C8B"/>
</radialGradient>
<radialGradient id="paint4_diamond_401_221" cx="0" cy="0" r="1" gradientUnits="userSpaceOnUse" gradientTransform="translate(24.7315 -0.377181) rotate(90) scale(3.46901 0.778119)">
<stop stop-color="#262A5A"/>
<stop offset="0.5" stop-color="#93268B"/>
<stop offset="1" stop-color="#652C8B"/>
</radialGradient>
<radialGradient id="paint5_diamond_401_221" cx="0" cy="0" r="1" gradientUnits="userSpaceOnUse" gradientTransform="translate(35.7853 2.9944) rotate(90) scale(3.01149 2.24229)">
<stop stop-color="#262A5A"/>
<stop offset="0.5" stop-color="#93268B"/>
<stop offset="1" stop-color="#652C8B"/>
</radialGradient>
<radialGradient id="paint6_diamond_401_221" cx="0" cy="0" r="1" gradientUnits="userSpaceOnUse" gradientTransform="translate(13.998 2.77442) rotate(90) scale(3.04639 2.20738)">
<stop stop-color="#262A5A"/>
<stop offset="0.5" stop-color="#93268B"/>
<stop offset="1" stop-color="#652C8B"/>
</radialGradient>
<radialGradient id="paint7_diamond_401_221" cx="0" cy="0" r="1" gradientUnits="userSpaceOnUse" gradientTransform="translate(7.20902 10.151) rotate(90) scale(2.05282 3.09354)">
<stop stop-color="#262A5A"/>
<stop offset="0.5" stop-color="#93268B"/>
<stop offset="1" stop-color="#652C8B"/>
</radialGradient>
<radialGradient id="paint8_diamond_401_221" cx="0" cy="0" r="1" gradientUnits="userSpaceOnUse" gradientTransform="translate(42.262 10.151) rotate(90) scale(2.05282 3.10167)">
<stop stop-color="#262A5A"/>
<stop offset="0.5" stop-color="#93268B"/>
<stop offset="1" stop-color="#652C8B"/>
</radialGradient>
<clipPath id="clip0_401_221">
<rect width="49.4792" height="50" fill="white"/>
</clipPath>
</defs>
</svg>
