<svg width="30" height="30" viewBox="0 0 30 30" fill="none" xmlns="http://www.w3.org/2000/svg">
<path d="M8.72703 0C3.93083 0 0 3.93083 0 8.72703V20.8106C0 25.6068 3.93083 29.5376 8.72703 29.5376H20.8106C25.6068 29.5376 29.5376 25.6068 29.5376 20.8106V8.72703C29.5376 3.93083 25.6068 0 20.8106 0H8.72703ZM8.72703 1.34262H20.8106C24.8752 1.34262 28.195 4.66246 28.195 8.72703V20.8106C28.195 24.8752 24.8752 28.195 20.8106 28.195H8.72703C4.66246 28.195 1.34262 24.8752 1.34262 20.8106V8.72703C1.34262 4.66246 4.66246 1.34262 8.72703 1.34262ZM22.8245 5.37048C22.0864 5.37048 21.4819 5.97492 21.4819 6.7131C21.4819 7.45128 22.0864 8.05572 22.8245 8.05572C23.5627 8.05572 24.1672 7.45128 24.1672 6.7131C24.1672 5.97492 23.5627 5.37048 22.8245 5.37048ZM14.7688 7.38441C10.7108 7.38441 7.38441 10.7108 7.38441 14.7688C7.38441 18.8268 10.7108 22.1532 14.7688 22.1532C18.8268 22.1532 22.1532 18.8268 22.1532 14.7688C22.1532 10.7108 18.8268 7.38441 14.7688 7.38441ZM14.7688 8.72703C18.0952 8.72703 20.8106 11.4424 20.8106 14.7688C20.8106 18.0952 18.0952 20.8106 14.7688 20.8106C11.4424 20.8106 8.72703 18.0952 8.72703 14.7688C8.72703 11.4424 11.4424 8.72703 14.7688 8.72703Z" fill="#D9D9D9"/>
</svg>
