<svg width="50" height="50" viewBox="0 0 50 50" fill="none" xmlns="http://www.w3.org/2000/svg">
<path d="M36.1742 44.6364H20.5379L14.0152 36.6137V27.5909H14.9621C15.2727 27.5909 15.5303 27.3334 15.5303 27.0228V16.9849H22.5379C26.6136 16.9849 29.9242 13.6743 29.9242 9.59852C29.9242 5.52276 26.6136 2.21216 22.5379 2.21216H7.38636C3.31061 2.21216 0 5.52276 0 9.59852C0 13.6743 3.31061 16.9849 7.38636 16.9849H11.3636V27.0228C11.3636 27.3334 11.6212 27.5909 11.9318 27.5909H12.8788V36.6137L6.35606 44.6364H2.84091C2.5303 44.6364 2.27273 44.894 2.27273 45.2046C2.27273 45.5152 2.5303 45.7728 2.84091 45.7728H36.1742C36.4849 45.7728 36.7424 45.5152 36.7424 45.2046C36.7424 44.894 36.4849 44.6364 36.1742 44.6364ZM28.7576 9.03034H23.9091L27.3333 5.6061C28.1288 6.55307 28.6439 7.73489 28.7576 9.03034ZM27.3333 13.5909L23.9091 10.1667H28.7576C28.6439 11.4622 28.1288 12.644 27.3333 13.5909ZM23.1061 10.9697L26.5303 14.394C25.5833 15.1819 24.4015 15.697 23.1061 15.8182V10.9697ZM23.1061 8.22731V3.37882C24.4015 3.50004 25.5833 4.00761 26.5303 4.80307L23.1061 8.22731ZM21.9697 8.22731L18.5455 4.80307C19.4924 4.01519 20.6742 3.50004 21.9697 3.37882V8.22731ZM17.7348 5.6061L21.1591 9.03034H16.3106C16.4318 7.73489 16.947 6.55307 17.7348 5.6061ZM21.1667 10.1667L17.7424 13.5909C16.9545 12.644 16.4394 11.4622 16.3182 10.1667H21.1667ZM21.9697 10.9697V15.8182C20.6742 15.697 19.4924 15.1894 18.5455 14.394L21.9697 10.9697ZM1.13636 9.59852C1.13636 6.15155 3.93939 3.34852 7.38636 3.34852H18.6212C16.5455 4.65913 15.1515 6.96216 15.1515 9.59852C15.1515 12.2349 16.5379 14.5379 18.6212 15.8485H7.38636C3.93939 15.8485 1.13636 13.0455 1.13636 9.59852ZM12.5 16.9849H14.3939V26.4546H12.5V16.9849ZM19.0682 44.6364H14.0152V38.4167L19.0682 44.6364ZM12.8788 38.4167V44.6364H7.82576L12.8788 38.4167Z" fill="url(#paint0_diamond_401_163)"/>
<path d="M44.5076 44.6365H39.2045C38.8939 44.6365 38.6364 44.8941 38.6364 45.2047C38.6364 45.5153 38.8939 45.7728 39.2045 45.7728H44.5076C44.8182 45.7728 45.0757 45.5153 45.0757 45.2047C45.0757 44.8941 44.8182 44.6365 44.5076 44.6365Z" fill="url(#paint1_diamond_401_163)"/>
<path d="M5.11359 7.32568C4.80299 7.32568 4.54541 7.58326 4.54541 7.89387V11.303C4.54541 11.6136 4.80299 11.8711 5.11359 11.8711C5.4242 11.8711 5.68177 11.6136 5.68177 11.303V7.89387C5.68177 7.58326 5.4242 7.32568 5.11359 7.32568Z" fill="url(#paint2_diamond_401_163)"/>
<path d="M8.14387 7.32568C7.83326 7.32568 7.57568 7.58326 7.57568 7.89387V11.303C7.57568 11.6136 7.83326 11.8711 8.14387 11.8711C8.45447 11.8711 8.71205 11.6136 8.71205 11.303V7.89387C8.71205 7.58326 8.45447 7.32568 8.14387 7.32568Z" fill="url(#paint3_diamond_401_163)"/>
<path d="M11.1741 7.32568C10.8635 7.32568 10.606 7.58326 10.606 7.89387V11.303C10.606 11.6136 10.8635 11.8711 11.1741 11.8711C11.4847 11.8711 11.7423 11.6136 11.7423 11.303V7.89387C11.7423 7.58326 11.4847 7.32568 11.1741 7.32568Z" fill="url(#paint4_diamond_401_163)"/>
<path d="M32.3485 10.9242H37.3409C40.356 10.9242 42.803 8.47727 42.803 5.46212C42.803 2.44697 40.356 0 37.3409 0C37.0303 0 36.7727 0.257576 36.7727 0.568182C36.7727 0.878788 37.0303 1.13636 37.3409 1.13636C39.7272 1.13636 41.6666 3.07576 41.6666 5.46212C41.6666 7.84848 39.7272 9.78788 37.3409 9.78788H32.3485C32.0378 9.78788 31.7803 10.0455 31.7803 10.3561C31.7803 10.6667 32.0303 10.9242 32.3485 10.9242Z" fill="url(#paint5_diamond_401_163)"/>
<path d="M32.4243 7.89391H37.3409C38.6818 7.89391 39.7727 6.803 39.7727 5.46209C39.7727 4.12118 38.6818 3.03027 37.3409 3.03027C37.0303 3.03027 36.7727 3.28785 36.7727 3.59846C36.7727 3.90906 37.0303 4.16664 37.3409 4.16664C38.0531 4.16664 38.6364 4.74997 38.6364 5.46209C38.6364 6.17421 38.0531 6.75755 37.3409 6.75755H32.4243C32.1137 6.75755 31.8561 7.01512 31.8561 7.32573C31.8561 7.63633 32.1137 7.89391 32.4243 7.89391Z" fill="url(#paint6_diamond_401_163)"/>
<path d="M42.644 9.78784C42.3334 9.78784 42.0758 10.0454 42.0758 10.356C42.0758 10.6666 42.3334 10.9242 42.644 10.9242C45.0304 10.9242 46.9697 12.8636 46.9697 15.25C46.9697 17.6363 45.0304 19.5757 42.644 19.5757C42.3334 19.5757 42.0758 19.8333 42.0758 20.1439C42.0758 20.4545 42.3334 20.7121 42.644 20.7121C45.6591 20.7121 48.1061 18.2651 48.1061 15.25C48.1061 12.2348 45.6591 9.78784 42.644 9.78784Z" fill="url(#paint7_diamond_401_163)"/>
<path d="M42.644 16.5454C42.3334 16.5454 42.0758 16.803 42.0758 17.1136C42.0758 17.4242 42.3334 17.6818 42.644 17.6818C43.9849 17.6818 45.0758 16.5908 45.0758 15.2499C45.0758 13.909 43.9849 12.8181 42.644 12.8181H32.4243C32.1137 12.8181 31.8561 13.0757 31.8561 13.3863C31.8561 13.6969 32.1137 13.9545 32.4243 13.9545H42.644C43.3561 13.9545 43.9394 14.5378 43.9394 15.2499C43.9394 15.9621 43.3561 16.5454 42.644 16.5454Z" fill="url(#paint8_diamond_401_163)"/>
<defs>
<radialGradient id="paint0_diamond_401_163" cx="0" cy="0" r="1" gradientUnits="userSpaceOnUse" gradientTransform="translate(18.3712 23.9925) rotate(90) scale(21.7803 18.3712)">
<stop stop-color="#262A5A"/>
<stop offset="0.5" stop-color="#93268B"/>
<stop offset="1" stop-color="#652C8B"/>
</radialGradient>
<radialGradient id="paint1_diamond_401_163" cx="0" cy="0" r="1" gradientUnits="userSpaceOnUse" gradientTransform="translate(41.856 45.2047) rotate(90) scale(0.568182 3.2197)">
<stop stop-color="#262A5A"/>
<stop offset="0.5" stop-color="#93268B"/>
<stop offset="1" stop-color="#652C8B"/>
</radialGradient>
<radialGradient id="paint2_diamond_401_163" cx="0" cy="0" r="1" gradientUnits="userSpaceOnUse" gradientTransform="translate(5.11359 9.59841) rotate(90) scale(2.27273 0.568182)">
<stop stop-color="#262A5A"/>
<stop offset="0.5" stop-color="#93268B"/>
<stop offset="1" stop-color="#652C8B"/>
</radialGradient>
<radialGradient id="paint3_diamond_401_163" cx="0" cy="0" r="1" gradientUnits="userSpaceOnUse" gradientTransform="translate(8.14387 9.59841) rotate(90) scale(2.27273 0.568182)">
<stop stop-color="#262A5A"/>
<stop offset="0.5" stop-color="#93268B"/>
<stop offset="1" stop-color="#652C8B"/>
</radialGradient>
<radialGradient id="paint4_diamond_401_163" cx="0" cy="0" r="1" gradientUnits="userSpaceOnUse" gradientTransform="translate(11.1741 9.59841) rotate(90) scale(2.27273 0.568182)">
<stop stop-color="#262A5A"/>
<stop offset="0.5" stop-color="#93268B"/>
<stop offset="1" stop-color="#652C8B"/>
</radialGradient>
<radialGradient id="paint5_diamond_401_163" cx="0" cy="0" r="1" gradientUnits="userSpaceOnUse" gradientTransform="translate(37.2916 5.46212) rotate(90) scale(5.46212 5.51136)">
<stop stop-color="#262A5A"/>
<stop offset="0.5" stop-color="#93268B"/>
<stop offset="1" stop-color="#652C8B"/>
</radialGradient>
<radialGradient id="paint6_diamond_401_163" cx="0" cy="0" r="1" gradientUnits="userSpaceOnUse" gradientTransform="translate(35.8144 5.46209) rotate(90) scale(2.43182 3.95833)">
<stop stop-color="#262A5A"/>
<stop offset="0.5" stop-color="#93268B"/>
<stop offset="1" stop-color="#652C8B"/>
</radialGradient>
<radialGradient id="paint7_diamond_401_163" cx="0" cy="0" r="1" gradientUnits="userSpaceOnUse" gradientTransform="translate(45.091 15.25) rotate(90) scale(5.46212 3.01515)">
<stop stop-color="#262A5A"/>
<stop offset="0.5" stop-color="#93268B"/>
<stop offset="1" stop-color="#652C8B"/>
</radialGradient>
<radialGradient id="paint8_diamond_401_163" cx="0" cy="0" r="1" gradientUnits="userSpaceOnUse" gradientTransform="translate(38.4659 15.2499) rotate(90) scale(2.43182 6.60985)">
<stop stop-color="#262A5A"/>
<stop offset="0.5" stop-color="#93268B"/>
<stop offset="1" stop-color="#652C8B"/>
</radialGradient>
</defs>
</svg>
