<svg width="40" height="40" viewBox="0 0 40 40" fill="none" xmlns="http://www.w3.org/2000/svg">
<g clip-path="url(#clip0_401_155)">
<path d="M10.1673 28.7128C9.8627 29.0176 9.8627 29.512 10.1673 29.8175C10.4727 30.1221 10.9674 30.1221 11.2729 29.8175C11.5775 29.512 11.5775 29.0176 11.2729 28.7128C10.9674 28.4073 10.4727 28.4073 10.1673 28.7128Z" fill="url(#paint0_diamond_401_155)"/>
<path d="M25.8081 39.9961C26.2396 39.9961 26.5894 39.6464 26.5894 39.2148C26.5894 38.7833 26.2396 38.4336 25.8081 38.4336H22.6831C22.2519 38.4336 21.9019 38.7833 21.9019 39.2148C21.9019 39.6464 22.2519 39.9961 22.6831 39.9961H25.8081Z" fill="url(#paint1_diamond_401_155)"/>
<path d="M31.997 1.37024C31.6888 1.67847 6.06257 27.294 5.19587 28.1604V28.1607C5.19557 28.161 5.19526 28.1613 5.19496 28.1616C5.13118 28.2257 5.07564 28.3078 5.04207 28.3789L0.0759403 38.8794C-0.168506 39.3961 0.209912 39.996 0.782117 39.996H19.5587C19.9902 39.996 20.3399 39.6463 20.3399 39.2148C20.3399 38.7833 19.9902 38.4335 19.5587 38.4335H4.24861L11.6076 34.9426C11.6803 34.9084 11.7605 34.8538 11.8237 34.7906C11.8243 34.79 11.8249 34.7897 11.8255 34.7891L11.8258 34.7888C12.8759 33.7393 37.2772 9.34875 38.6267 7.99988C40.458 6.16852 40.4583 3.2019 38.6267 1.36993C36.799 -0.456848 33.825 -0.456543 31.997 1.37024ZM32.5488 11.8658C31.1746 10.4916 29.5117 8.82874 28.1289 7.44598L29.7866 5.78888L34.2068 10.2087L32.5488 11.8658ZM6.93934 35.4279L4.56141 33.0493L5.98018 30.0497L9.93709 34.006L6.93934 35.4279ZM11.2731 33.1323L6.85328 28.7131L27.0239 8.55072L28.6819 10.2087L12.3776 26.5027C12.0727 26.8076 12.0724 27.3022 12.3773 27.6074C12.6821 27.9126 13.1768 27.9129 13.4823 27.6077L29.7869 11.3138L31.4437 12.9706L11.2731 33.1323ZM3.85188 34.5496L5.44063 36.1386L2.42335 37.5699L3.85188 34.5496ZM37.5219 6.89484L35.3118 9.104L30.8917 4.68414L33.1018 2.47528C34.3203 1.25702 36.3034 1.25702 37.5216 2.47498C38.7426 3.69568 38.7429 5.67413 37.5219 6.89484Z" fill="url(#paint2_diamond_401_155)"/>
</g>
<defs>
<radialGradient id="paint0_diamond_401_155" cx="0" cy="0" r="1" gradientUnits="userSpaceOnUse" gradientTransform="translate(10.7201 29.2648) rotate(90) scale(0.781136 0.78125)">
<stop stop-color="#262A5A"/>
<stop offset="0.5" stop-color="#93268B"/>
<stop offset="1" stop-color="#652C8B"/>
</radialGradient>
<radialGradient id="paint1_diamond_401_155" cx="0" cy="0" r="1" gradientUnits="userSpaceOnUse" gradientTransform="translate(24.2456 39.2148) rotate(90) scale(0.78125 2.34375)">
<stop stop-color="#262A5A"/>
<stop offset="0.5" stop-color="#93268B"/>
<stop offset="1" stop-color="#652C8B"/>
</radialGradient>
<radialGradient id="paint2_diamond_401_155" cx="0" cy="0" r="1" gradientUnits="userSpaceOnUse" gradientTransform="translate(20.0003 19.998) rotate(90) scale(19.998 20)">
<stop stop-color="#262A5A"/>
<stop offset="0.5" stop-color="#93268B"/>
<stop offset="1" stop-color="#652C8B"/>
</radialGradient>
<clipPath id="clip0_401_155">
<rect width="40" height="40" fill="white"/>
</clipPath>
</defs>
</svg>
