<svg width="27" height="27" viewBox="0 0 27 27" fill="none" xmlns="http://www.w3.org/2000/svg">
<path d="M5.50179 17.9478C8.16487 21.1312 11.3706 23.6376 15.0296 25.4111C16.4226 26.0713 18.2857 26.8545 20.3613 26.9888C20.49 26.9944 20.6131 27 20.7417 27C22.1348 27 23.2538 26.5189 24.1657 25.5286C24.1713 25.523 24.1825 25.5118 24.1881 25.5006C24.5126 25.109 24.8818 24.7565 25.2678 24.3817C25.5308 24.1299 25.7993 23.867 26.0567 23.5984C27.2484 22.3564 27.2484 20.7787 26.0455 19.5758L22.6831 16.2134C22.1124 15.6204 21.4299 15.3071 20.7138 15.3071C19.9976 15.3071 19.3095 15.6204 18.7221 16.2078L16.7192 18.2107C16.5345 18.1044 16.3443 18.0093 16.1653 17.9198C15.9415 17.8079 15.7345 17.7016 15.5499 17.5841C13.726 16.426 12.07 14.9155 10.4867 12.9741C9.68662 11.9615 9.14953 11.1111 8.77469 10.2439C9.30059 9.76834 9.79292 9.27041 10.2685 8.78367C10.4363 8.61024 10.6097 8.4368 10.7832 8.26336C11.3874 7.65914 11.7119 6.9598 11.7119 6.24927C11.7119 5.53875 11.393 4.83941 10.7832 4.23518L9.11596 2.56797C8.92015 2.37215 8.73553 2.18193 8.54531 1.98612C8.17605 1.60568 7.79002 1.21405 7.40958 0.861583C6.83333 0.296519 6.15637 0 5.44025 0C4.72972 0 4.04717 0.296519 3.44854 0.867178L1.35612 2.95959C0.595243 3.72047 0.164452 4.6436 0.0749366 5.71218C-0.0313626 7.04932 0.214804 8.47037 0.852599 10.1879C1.83167 12.8454 3.30867 15.3127 5.50179 17.9478ZM1.44004 5.82967C1.50718 5.08558 1.79251 4.46457 2.3296 3.92748L4.41083 1.84625C4.73532 1.53295 5.09338 1.3707 5.44025 1.3707C5.78153 1.3707 6.1284 1.53295 6.44729 1.85744C6.82214 2.20431 7.17461 2.56797 7.55504 2.954C7.74526 3.14981 7.94108 3.34563 8.13689 3.54704L9.80411 5.21426C10.151 5.56113 10.33 5.91359 10.33 6.26046C10.33 6.60734 10.151 6.9598 9.80411 7.30667C9.63068 7.48011 9.45724 7.65914 9.2838 7.83257C8.7635 8.35847 8.27676 8.8564 7.73967 9.33195C7.72848 9.34314 7.72289 9.34874 7.7117 9.35993C7.24734 9.82428 7.32007 10.2663 7.43196 10.6019C7.43756 10.6187 7.44315 10.6299 7.44875 10.6467C7.87954 11.6817 8.47817 12.6664 9.41248 13.8413C11.0909 15.9113 12.8588 17.517 14.8058 18.7534C15.0463 18.9101 15.3037 19.0332 15.5443 19.1562C15.7681 19.2681 15.9751 19.3744 16.1597 19.4919C16.1821 19.5031 16.1988 19.5143 16.2212 19.5255C16.4059 19.6206 16.5849 19.6654 16.7639 19.6654C17.2115 19.6654 17.5024 19.38 17.5975 19.2849L19.6899 17.1925C20.0144 16.868 20.3669 16.6946 20.7138 16.6946C21.139 16.6946 21.4858 16.9575 21.704 17.1925L25.0776 20.5605C25.749 21.2319 25.7434 21.9592 25.0608 22.6697C24.8259 22.9215 24.5797 23.162 24.3168 23.4138C23.9251 23.7942 23.5167 24.1859 23.1475 24.6278C22.5041 25.3216 21.7376 25.6461 20.7473 25.6461C20.6522 25.6461 20.5515 25.6405 20.4564 25.6349C18.6214 25.5174 16.915 24.8013 15.6338 24.1915C12.1539 22.5075 9.09918 20.1185 6.56478 17.0862C4.47796 14.5742 3.07369 12.2356 2.14497 9.72917C1.56872 8.19063 1.35053 6.95421 1.44004 5.82967Z" fill="white"/>
</svg>
