<svg width="35" height="36" viewBox="0 0 35 36" fill="none" xmlns="http://www.w3.org/2000/svg">
<path d="M7.09259 23.3538C10.5578 27.4961 14.7292 30.7575 19.4902 33.0652C21.3029 33.9242 23.7271 34.9434 26.4279 35.1181C26.5954 35.1254 26.7555 35.1327 26.923 35.1327C28.7357 35.1327 30.1916 34.5066 31.3783 33.2181C31.3855 33.2108 31.4001 33.1962 31.4074 33.1817C31.8296 32.6721 32.3101 32.2134 32.8124 31.7257C33.1545 31.3981 33.504 31.0559 33.8389 30.7065C35.3895 29.0904 35.3895 27.0375 33.8243 25.4723L29.4491 21.0971C28.7065 20.3254 27.8184 19.9177 26.8866 19.9177C25.9547 19.9177 25.0593 20.3254 24.2949 21.0898L21.6887 23.696C21.4485 23.5577 21.201 23.4339 20.968 23.3174C20.6768 23.1718 20.4075 23.0335 20.1672 22.8806C17.794 21.3737 15.6392 19.4081 13.579 16.882C12.5379 15.5644 11.8391 14.4578 11.3513 13.3295C12.0356 12.7107 12.6763 12.0628 13.295 11.4294C13.5134 11.2037 13.7391 10.9781 13.9648 10.7524C14.751 9.96615 15.1733 9.05616 15.1733 8.13162C15.1733 7.20708 14.7583 6.29709 13.9648 5.51086L11.7954 3.34146C11.5406 3.08667 11.3004 2.83915 11.0528 2.58436C10.5724 2.08932 10.0701 1.57973 9.57503 1.1211C8.8252 0.385833 7.94434 0 7.01251 0C6.08797 0 5.19982 0.385833 4.42088 1.12838L1.6982 3.85105C0.708142 4.84112 0.147592 6.0423 0.0311136 7.43275C-0.107204 9.17264 0.21311 11.0217 1.04302 13.2567C2.31699 16.7146 4.23888 19.925 7.09259 23.3538ZM1.8074 7.58563C1.89476 6.61741 2.26604 5.80934 2.9649 5.11047L5.67302 2.40236C6.09525 1.99469 6.56116 1.78357 7.01251 1.78357C7.45659 1.78357 7.90794 1.99469 8.32289 2.41692C8.81064 2.86827 9.26928 3.34146 9.76431 3.84377C10.0118 4.09857 10.2666 4.35336 10.5214 4.61544L12.6908 6.78484C13.1422 7.2362 13.3751 7.69483 13.3751 8.14618C13.3751 8.59753 13.1422 9.05616 12.6908 9.50752C12.4651 9.73319 12.2395 9.96615 12.0138 10.1918C11.3368 10.8761 10.7034 11.524 10.0045 12.1428C9.98998 12.1574 9.9827 12.1647 9.96814 12.1792C9.36391 12.7835 9.45855 13.3586 9.60415 13.7954C9.61143 13.8172 9.61871 13.8318 9.62599 13.8536C10.1865 15.2004 10.9655 16.4816 12.1812 18.0104C14.3652 20.704 16.6656 22.7933 19.199 24.4021C19.5121 24.606 19.8469 24.7661 20.16 24.9263C20.4512 25.0719 20.7205 25.2102 20.9608 25.3631C20.9899 25.3776 21.0117 25.3922 21.0408 25.4068C21.2811 25.5305 21.514 25.5888 21.747 25.5888C22.3294 25.5888 22.7079 25.2175 22.8317 25.0937L25.5544 22.3711C25.9766 21.9488 26.4352 21.7231 26.8866 21.7231C27.4398 21.7231 27.8912 22.0653 28.1751 22.3711L32.5649 26.7535C33.4385 27.6271 33.4312 28.5735 32.543 29.4981C32.2373 29.8256 31.917 30.1387 31.5748 30.4663C31.0652 30.9613 30.5338 31.4709 30.0533 32.046C29.2161 32.9487 28.2188 33.3709 26.9303 33.3709C26.8065 33.3709 26.6755 33.3637 26.5517 33.3564C24.1639 33.2035 21.9435 32.2717 20.2764 31.4782C15.7484 29.2869 11.7736 26.1784 8.47577 22.2327C5.76038 18.9641 3.93313 15.9211 2.72467 12.6597C1.97484 10.6577 1.69093 9.04888 1.8074 7.58563Z" fill="white"/>
</svg>
