<svg width="45" height="45" viewBox="0 0 45 45" fill="none" xmlns="http://www.w3.org/2000/svg">
<g clip-path="url(#clip0_401_198)">
<path fill-rule="evenodd" clip-rule="evenodd" d="M22.5 42.75C33.6838 42.75 42.75 33.684 42.75 22.5C42.75 11.3162 33.684 2.24995 22.5 2.24995C11.3162 2.24995 2.24995 11.3162 2.24995 22.5C2.24995 33.6838 11.3162 42.75 22.5 42.75ZM22.5 45C34.9263 45 45 34.9263 45 22.5C45 10.0735 34.9263 0 22.5 0C10.0735 0 0 10.0735 0 22.5C0 34.9263 10.0735 45 22.5 45Z" fill="url(#paint0_diamond_401_198)"/>
<path fill-rule="evenodd" clip-rule="evenodd" d="M28.3466 22.5001L17.9998 15.6023V29.3981L28.3466 22.5001ZM30.437 21.1897C31.3723 21.8132 31.3723 23.1872 30.437 23.8107L18.1983 31.97C17.1517 32.6678 15.7496 31.9173 15.7496 30.6594V14.341C15.7496 13.0831 17.1517 12.3328 18.1983 13.0306L30.437 21.1897Z" fill="url(#paint1_diamond_401_198)"/>
</g>
<defs>
<radialGradient id="paint0_diamond_401_198" cx="0" cy="0" r="1" gradientUnits="userSpaceOnUse" gradientTransform="translate(22.5 22.5) rotate(90) scale(22.5)">
<stop stop-color="#262A5A"/>
<stop offset="0.5" stop-color="#93268B"/>
<stop offset="1" stop-color="#652C8B"/>
</radialGradient>
<radialGradient id="paint1_diamond_401_198" cx="0" cy="0" r="1" gradientUnits="userSpaceOnUse" gradientTransform="translate(23.444 22.5003) rotate(90) scale(9.73688 7.69441)">
<stop stop-color="#262A5A"/>
<stop offset="0.5" stop-color="#93268B"/>
<stop offset="1" stop-color="#652C8B"/>
</radialGradient>
<clipPath id="clip0_401_198">
<rect width="45" height="45" fill="white"/>
</clipPath>
</defs>
</svg>
