<svg width="40" height="40" viewBox="0 0 40 40" fill="none" xmlns="http://www.w3.org/2000/svg">
<g clip-path="url(#clip0_468_119)">
<path fill-rule="evenodd" clip-rule="evenodd" d="M20 38C29.9411 38 38 29.9413 38 20C38 10.0589 29.9413 1.99996 20 1.99996C10.0589 1.99996 1.99996 10.0589 1.99996 20C1.99996 29.9411 10.0589 38 20 38ZM20 40C31.0456 40 40 31.0456 40 20C40 8.95422 31.0456 0 20 0C8.95422 0 0 8.95422 0 20C0 31.0456 8.95422 40 20 40Z" fill="#D9D9D9"/>
<path fill-rule="evenodd" clip-rule="evenodd" d="M25.1971 20L15.9999 13.8687V26.1316L25.1971 20ZM27.0552 18.8352C27.8865 19.3894 27.8865 20.6108 27.0552 21.165L16.1764 28.4177C15.246 29.038 13.9998 28.3709 13.9998 27.2527V12.7475C13.9998 11.6294 15.246 10.9624 16.1764 11.5827L27.0552 18.8352Z" fill="#D9D9D9"/>
</g>
<defs>
<clipPath id="clip0_468_119">
<rect width="40" height="40" fill="white"/>
</clipPath>
</defs>
</svg>
