<svg width="28" height="28" viewBox="0 0 28 28" fill="none" xmlns="http://www.w3.org/2000/svg">
<g clip-path="url(#clip0_468_114)">
<path d="M27.8149 13.5514L21.4515 7.18784C21.2229 6.92091 20.8211 6.8898 20.5542 7.11844C20.2873 7.34703 20.2562 7.74876 20.4848 8.01568C20.5061 8.04057 20.5293 8.06381 20.5542 8.08508L25.8295 13.3668L0.636333 13.3668C0.284917 13.3668 0 13.6517 0 14.0032C0 14.3547 0.284917 14.6395 0.636333 14.6395L25.8295 14.6395L20.5542 19.9149C20.2873 20.1435 20.2562 20.5452 20.4848 20.8121C20.7135 21.079 21.1151 21.1102 21.3821 20.8815C21.4069 20.8602 21.4302 20.837 21.4515 20.8121L27.815 14.4486C28.0617 14.2005 28.0617 13.7996 27.8149 13.5514Z" fill="white"/>
</g>
<defs>
<clipPath id="clip0_468_114">
<rect width="28" height="28" fill="white"/>
</clipPath>
</defs>
</svg>
