<svg width="50" height="50" viewBox="0 0 50 50" fill="none" xmlns="http://www.w3.org/2000/svg">
<path d="M42.7083 6.25H7.29155C5.91071 6.25158 4.58687 6.80081 3.61047 7.77722C2.63407 8.75362 2.08483 10.0775 2.08325 11.4583V36.4583C2.08483 37.8391 2.63407 39.163 3.61047 40.1394C4.58687 41.1158 5.91071 41.665 7.29155 41.6666H18.75C19.0245 41.6639 19.2868 41.553 19.48 41.358C19.6732 41.1629 19.7816 40.8995 19.7816 40.625C19.7816 40.3504 19.6732 40.087 19.48 39.8919C19.2868 39.6969 19.0245 39.586 18.75 39.5833V34.375H19.7917C19.9293 34.3763 20.0658 34.3504 20.1934 34.2986C20.3209 34.2469 20.437 34.1704 20.5348 34.0735C20.6326 33.9766 20.7102 33.8614 20.7632 33.7343C20.8162 33.6073 20.8434 33.471 20.8434 33.3333C20.8434 33.1957 20.8162 33.0594 20.7632 32.9324C20.7102 32.8053 20.6326 32.6901 20.5348 32.5932C20.437 32.4963 20.3209 32.4198 20.1934 32.3681C20.0658 32.3163 19.9293 32.2904 19.7917 32.2917H4.16665V15.625H45.8333V22.9167C45.8359 23.1912 45.9468 23.4536 46.1419 23.6468C46.3369 23.8399 46.6004 23.9483 46.8749 23.9483C47.1494 23.9483 47.4129 23.8399 47.6079 23.6468C47.803 23.4536 47.9139 23.1912 47.9165 22.9167V11.4583C47.915 10.0775 47.3657 8.75362 46.3893 7.77722C45.4129 6.80081 44.0891 6.25158 42.7083 6.25ZM16.6666 34.375V39.5833H11.4583V34.375H16.6666ZM9.37495 34.375V39.5833H7.29155C6.46304 39.5824 5.66872 39.2528 5.08287 38.667C4.49702 38.0811 4.16748 37.2868 4.16655 36.4583V34.375H9.37495ZM4.16655 13.5417V11.4583C4.16748 10.6298 4.49702 9.83547 5.08287 9.24962C5.66872 8.66377 6.46304 8.33423 7.29155 8.3333H9.37495V13.5416L4.16655 13.5417ZM11.4583 13.5417V8.3333H16.6666V13.5416L11.4583 13.5417ZM18.75 13.5417V8.3333H23.9583V13.5416L18.75 13.5417ZM26.0416 13.5417V8.3333H31.25V13.5416L26.0416 13.5417ZM33.3334 13.5417V8.3333H38.5416V13.5416L33.3334 13.5417ZM40.625 13.5417V8.3333H42.7084C43.5369 8.33423 44.3312 8.66377 44.917 9.24962C45.5029 9.83547 45.8324 10.6298 45.8334 11.4583V13.5416L40.625 13.5417Z" fill="url(#paint0_diamond_401_177)"/>
<path d="M47.777 27.5371C47.6388 27.298 47.4112 27.1235 47.1444 27.052C46.8775 26.9806 46.5932 27.0181 46.354 27.1563L36.7544 32.6988L31.5281 29.6812C31.8251 28.6511 31.7345 27.5479 31.2733 26.5801C30.8121 25.6123 30.0123 24.8469 29.0252 24.4288C28.038 24.0107 26.9318 23.9687 25.9158 24.3108C24.8998 24.6528 24.0443 25.3553 23.5111 26.2853C22.9778 27.2154 22.8038 28.3086 23.0219 29.3582C23.2399 30.4079 23.835 31.3413 24.6946 31.9819C25.5541 32.6226 26.6186 32.9262 27.6868 32.8353C28.755 32.7444 29.7529 32.2652 30.4918 31.4885L34.6715 33.9014L30.4868 36.3174C29.7434 35.5395 28.7408 35.0609 27.6685 34.9722C26.5961 34.8836 25.5285 35.1909 24.6675 35.8362C23.8064 36.4815 23.2118 37.4199 22.9959 38.474C22.78 39.5281 22.9578 40.6248 23.4958 41.5566C24.0339 42.4884 24.8947 43.1908 25.9155 43.5308C26.9364 43.8709 28.0464 43.825 29.0357 43.4019C30.0251 42.9789 30.825 42.2079 31.2844 41.2349C31.7437 40.2619 31.8305 39.1543 31.5285 38.1216L36.7548 35.104L46.3544 40.6465C46.4729 40.7149 46.6037 40.7593 46.7393 40.7772C46.8749 40.795 47.0127 40.786 47.1449 40.7506C47.277 40.7152 47.4009 40.6541 47.5094 40.5708C47.6179 40.4876 47.709 40.3837 47.7774 40.2653C47.8458 40.1468 47.8902 40.016 47.908 39.8804C47.9259 39.7448 47.9169 39.607 47.8815 39.4748C47.8461 39.3427 47.785 39.2188 47.7017 39.1103C47.6184 39.0018 47.5146 38.9107 47.3961 38.8423L38.8379 33.9009L47.3961 28.9595C47.6352 28.8213 47.8095 28.5938 47.8809 28.3271C47.9524 28.0604 47.915 27.7763 47.777 27.5371ZM27.9161 30.6895C27.3985 30.8282 26.8488 30.7831 26.3607 30.562C25.8726 30.3409 25.4763 29.9574 25.2393 29.4768C25.0023 28.9962 24.9392 28.4483 25.0609 27.9264C25.1825 27.4046 25.4814 26.9411 25.9065 26.6148C26.3316 26.2886 26.8567 26.1199 27.3922 26.1374C27.9278 26.155 28.4407 26.3576 28.8436 26.7109C29.2465 27.0643 29.5144 27.5463 29.6017 28.075C29.689 28.6037 29.5902 29.1463 29.3223 29.6104C29.1708 29.8742 28.9686 30.1055 28.7272 30.2907C28.4858 30.4759 28.2101 30.6114 27.9161 30.6895ZM28.4746 41.3558C28.078 41.5847 27.6224 41.6908 27.1654 41.6608C26.7084 41.6308 26.2706 41.4659 25.9073 41.1871C25.544 40.9083 25.2715 40.528 25.1243 40.0943C24.9772 39.6607 24.9619 39.1931 25.0804 38.7507C25.1989 38.3084 25.4459 37.9111 25.7902 37.6091C26.1345 37.3071 26.5606 37.114 27.0147 37.0542C27.4687 36.9944 27.9303 37.0705 28.341 37.273C28.7518 37.4754 29.0933 37.7952 29.3224 38.1917C29.6289 38.7239 29.7118 39.3559 29.5528 39.9491C29.3939 40.5422 29.0061 41.0481 28.4746 41.3558Z" fill="url(#paint1_diamond_401_177)"/>
<defs>
<radialGradient id="paint0_diamond_401_177" cx="0" cy="0" r="1" gradientUnits="userSpaceOnUse" gradientTransform="translate(24.9999 23.9583) rotate(90) scale(17.7083 22.9166)">
<stop stop-color="#262A5A"/>
<stop offset="0.5" stop-color="#93268B"/>
<stop offset="1" stop-color="#652C8B"/>
</radialGradient>
<radialGradient id="paint1_diamond_401_177" cx="0" cy="0" r="1" gradientUnits="userSpaceOnUse" gradientTransform="translate(35.4117 33.9189) rotate(90) scale(9.83738 12.5053)">
<stop stop-color="#262A5A"/>
<stop offset="0.5" stop-color="#93268B"/>
<stop offset="1" stop-color="#652C8B"/>
</radialGradient>
</defs>
</svg>
